<?xml version="1.0" encoding="utf-8"?>
<!-- Generator: Adobe Illustrator 23.0.1, SVG Export Plug-In . SVG Version: 6.00 Build 0)  -->
<svg version="1.1" id="Capa_1" xmlns="http://www.w3.org/2000/svg" xmlns:xlink="http://www.w3.org/1999/xlink" x="0px" y="0px"
	 viewBox="0 0 48 48" style="enable-background:new 0 0 48 48;" xml:space="preserve">
<style type="text/css">
	.st0{fill:none;}
	.st1{fill:#BFBFBF;}
</style>
<path class="st0" d="M0,0h48v48H0V0z"/>
<path class="st1" d="M8,16h8V8H8V16z M20,40h8v-8h-8V40z M8,40h8v-8H8V40z M8,28h8v-8H8V28z M20,28h8v-8h-8V28z M32,8v8h8V8H32z
	 M20,16h8V8h-8V16z M32,28h8v-8h-8V28z M32,40h8v-8h-8V40z"/>
</svg>
