<?xml version="1.0" encoding="utf-8"?>
<!-- Generator: Adobe Illustrator 23.0.1, SVG Export Plug-In . SVG Version: 6.00 Build 0)  -->
<svg version="1.1" id="Capa_1" xmlns="http://www.w3.org/2000/svg" xmlns:xlink="http://www.w3.org/1999/xlink" x="0px" y="0px"
	 viewBox="0 0 48 48" style="enable-background:new 0 0 48 48;" xml:space="preserve">
<style type="text/css">
	.st0{fill:#34A853;}
	.st1{fill:#326BC8;}
	.st2{fill:none;}
	.st3{fill:#554109;}
	.st4{fill:#EA4335;}
</style>
<rect x="22" y="37.3" class="st0" width="4" height="7.2"/>
<path d="M-27.6,37.8c6.6-1,12-6.6,12-13.4H-19c0,6-5.1,10.2-10.6,10.2s-10.6-4.2-10.6-10.2h-3.4c0,6.8,5.4,12.5,12,13.4H-27.6z"/>
<path class="st1" d="M-23.6,12.4l0,12c0,3.3-2.7,6-6,6s-6-2.7-6-6v-12c0-3.3,2.7-6,6-6S-23.6,9-23.6,12.4z"/>
<rect x="-31.7" y="37.7" width="4" height="7.8"/>
<path class="st1" d="M30,12l0,12c0,3.3-2.7,6-6,6s-6-2.7-6-6V12c0-3.3,2.7-6,6-6S30,8.7,30,12z"/>
<path class="st2" d="M-53.6,0.3h48v48h-48V0.3z"/>
<path d="M-29.6,30.3c3.3,0,6-2.7,6-6l0-12c0-3.3-2.7-6-6-6s-6,2.7-6,6v12C-35.6,27.6-32.9,30.3-29.6,30.3z M-19,24.3
	c0,6-5.1,10.2-10.6,10.2s-10.6-4.2-10.6-10.2h-3.4c0,6.8,5.4,12.5,12,13.4v6.6h4v-6.6c6.6-1,12-6.6,12-13.4H-19z"/>
<g>
	<path class="st3" d="M13.4,24H10c0,2.8,0.9,5.3,2.4,7.5l2.4-2.4C13.9,27.6,13.4,25.9,13.4,24z"/>
	<path class="st4" d="M34.6,24c0,6-5.1,10.2-10.6,10.2c-3.8,0-7.3-2-9.2-5.1l-2.4,2.4c2.2,3.2,5.7,5.4,9.6,6h4c6.6-1,12-6.6,12-13.4
		H34.6z"/>
</g>
</svg>
